<svg xmlns="http://www.w3.org/2000/svg" width="48" height="48" viewBox="0 0 48 48">
    <path fill="rgb(80,89,98)" d="M3 43V1h2v42h42v2H5v2H3v-2H1v-2h2z"/>
    <path fill="rgb(40,167,69)" d="M10 10h6c1.10383005 0 2 .89616995 2 2v26c0 1.10383005-.89616995 2-2 2h-6c-1.10383005 0-2-.89616995-2-2V12c0-1.10383005.89616995-2 2-2z"/>
    <path fill="rgb(255,163,0)" d="M23 4h6c1.10383005 0 2 .89616995 2 2v32c0 1.10383005-.89616995 2-2 2h-6c-1.10383005 0-2-.89616995-2-2V6c0-1.10383005.89616995-2 2-2z"/>
    <path fill="rgb(220,53,69)" d="M36 16h6c1.10383005 0 2 .89616995 2 2v20c0 1.10383005-.89616995 2-2 2h-6c-1.10383005 0-2-.89616995-2-2V18c0-1.10383005.89616995-2 2-2z"/>
</svg>
