<svg xmlns="http://www.w3.org/2000/svg" width="48" height="48" viewBox="0 0 48 48">
    <path fill="rgb(255,163,0)" d="M21 10c0-1.10383034.89616966-2 2-2h6c1.10383034 0 2 .89616966 2 2v28c0 1.10382843-.89616966 2-2 2h-6c-1.10383034 0-2-.89617157-2-2V10zM8 16c0-1.10383034.89616966-2 2-2h6c1.10383034 0 2 .89616966 2 2v22c0 1.10382843-.89616966 2-2 2h-6c-1.10383034 0-2-.89617157-2-2V16zm26 6c0-1.10383034.89617157-2 2-2h6c1.10382843 0 2 .89616966 2 2v16c0 1.10382843-.89617157 2-2 2h-6c-1.10382843 0-2-.89617157-2-2V22z"/>
    <rect fill="rgb(40,167,69)" width="42" height="2" x="5" y="4"/>
    <rect fill="rgb(220,53,69)" width="42" height="2" x="5" y="16"/>
    <path fill="rgb(80,89,98)" d="M3 43V1h2v42h42v2H5v2H3v-2H1v-2h2z"/>
</svg>
