<svg xmlns="http://www.w3.org/2000/svg" width="48" height="48" viewBox="0 0 48 48">
    <path fill="rgb(80,89,98)" d="M3 43V1h2v42h42v2H5v2H3v-2H1v-2h2z"/>
    <path fill="rgb(255,163,0)" d="M21 16v-6h10v6H21zM8 24V14h10v10H8zm26 3v-9h10v9H34z"/>
    <path fill="rgb(40,167,69)" d="M21 38V16h10v22c0 1.10382843-.89616966 2-2 2h-6c-1.10383034 0-2-.89617157-2-2zM8 38V24h10v14c0 1.10456848-.89543152 2-2 2h-6c-1.10456944 0-2-.89543152-2-2zm26 0V27h10v11c0 1.10382843-.89617157 2-2 2h-6c-1.10382843 0-2-.89617157-2-2z"/>
    <path fill="rgb(220,53,69)" d="M21 6c0-1.10382986.89616966-2 2-2h6c1.10383034 0 2 .89617014 2 2v4H21V6zM8 12c0-1.10383034.89616966-2 2-2h6c1.10383034 0 2 .89616966 2 2v2H8v-2zm26 6c0-1.10383034.89617157-2 2-2h6c1.10382843 0 2 .89616966 2 2H34z"/>
</svg>
