<svg xmlns="http://www.w3.org/2000/svg" width="48" height="48" viewBox="0 0 48 48">
    <path fill="rgb(255,163,0)" d="M21 6c0-1.10382986.89616966-2 2-2h6c1.10383034 0 2 .89617014 2 2v32c0 1.10382843-.89616966 2-2 2h-6c-1.10383034 0-2-.89617157-2-2V6zM8 12c0-1.10383034.89616966-2 2-2h6c1.10383034 0 2 .89616966 2 2v26c0 1.10382843-.89616966 2-2 2h-6c-1.10383034 0-2-.89617157-2-2V12zm26 6c0-1.10383034.89617157-2 2-2h6c1.10382843 0 2 .89616966 2 2v20c0 1.10382843-.89617157 2-2 2h-6c-1.10382843 0-2-.89617157-2-2V18z"/>
    <path fill="none" stroke="rgb(40,167,69)" stroke-width="2" d="M4 26l.91651167.40733852C9.82241614 28.58774051 15.55512153 27.64142628 19.5 24l1.16002103-1.07078864C23.87385976 19.96259099 28.58800861 19.2940043 32.5 21.25h0c3.63805787 1.81902893 8.06340793.45820012 10.05078863-3.09069398L46 12"/>
    <path fill="rgb(80,89,98)" d="M3 43V1h2v42h42v2H5v2H3v-2H1v-2h2z"/>
</svg>
