<svg xmlns="http://www.w3.org/2000/svg" width="48" height="48" viewBox="0 0 48 48">
    <path fill="rgb(40,167,69)" d="M4 44V16l3.4392983 1.71964915C10.39519183 19.19759592 13.75938734 19.64812253 17 19c3.20144623-.64028925 6.01741565-2.52612348 7.82842712-5.24264069l2.3117662-3.4676493C28.92684225 7.60973665 31.93466268 6 35.1555898 6c3.15879976 0 6.24692286-.93500844 8.87520314-2.6871953L46 2v42H4z"/>
    <path fill="rgb(255,163,0)" d="M4 44V32l4.62167011-2.31083506C10.84335706 28.57832147 13.29316611 28 15.77708764 28c3.98446387 0 7.80573447-1.5828221 10.62317589-4.40026353l2.43745881-2.43745881C30.72620385 19.27379615 33.61123884 18.80561942 36 20c2.38876116 1.19438058 5.27379615.72620385 7.16227766-1.16227766L46 16v28H4z"/>
    <path fill="rgb(220,53,69)" d="M4 44l7.76393202-7.76393202C13.1343422 34.8656578 15.16140181 34.38713394 17 35c1.89286844.63095615 3.97101862.35265426 5.63117406-.75411604l5.6477839-3.76518927C30.5799567 28.94669554 33.5265007 28.76325034 36 30c2.47349931 1.23674966 5.4200433 1.05330446 7.72104204-.4806947L46 28v16H4z"/>
    <path fill="rgb(80,89,98)" d="M3 43V1h2v42h42v2H5v2H3v-2H1v-2h2z"/>
</svg>
