<svg xmlns="http://www.w3.org/2000/svg" width="48" height="48" viewBox="0 0 48 48">
    <path fill="rgb(220,53,69)" d="M8 37s8-14 29-13h8c0 5.82343102-2.37549591 11.09641266-6.20950699 14.90196228l-5.6344719-5.6769371c.1615448-.16034317.31890488-.32489395.47190476-.49347687C23.6084137 25.78145409 8 37 8 37z"/>
    <path fill="rgb(255,163,0)" d="M45 24h-8c0-3.76756477-1.60617828-7.1629467-4.17056274-9.5381689C23.47028732 27.11962127 33.5 43 33.5 43s-12.9728012-8.3695488-9.43933105-31.99985981C24.04045868 11.00004673 24.02023506 11 24 11V3c11.59021759 0 21 9.40978432 21 21z"/>
    <path fill="rgb(40,167,69)" d="M38.91820526 38.77410889C35.11142731 42.617733 29.83172226 45 24 45 12.40978432 45 3 35.59021378 3 24 3 12.40978432 12.40978432 3 24 3v8c-2.07320213 0-4.03370285.48635769-5.77353859 1.35110283C27.18816757 26.08710098 44 16 44 16s-16.76709938 16.76709747-32.89221859 9.68011284C11.93286228 32.06259155 17.39438248 37 24 37c3.61011314 0 6.8785019-1.47473526 9.23508072-3.85412216l5.68312454 5.62823105z"/>
</svg>
