<svg xmlns="http://www.w3.org/2000/svg" width="48" height="48" viewBox="0 0 48 48">
    <text>
        <tspan x="14.606" y="44" fill="rgb(80,89,98)" font-family="Acrom Bold" font-size="11" font-weight="700" style="white-space:pre;text-transform:none">110</tspan>
    </text>
    <path fill="rgb(40,167,69)" d="M33.21286774 14.83174896C30.85798454 12.46549416 27.5987854 11 24 11c-7.17489624 0-13 5.82510376-13 13 0 2.76363945.86424255 5.32701874 2.33697319 7.43438148l-6.561862 4.57500268C4.39608384 32.60518265 3 28.46434212 3 24 3 12.40978432 12.40978432 3 24 3c5.82447433 0 11.09830475 2.3763485 14.90400696 6.21156883-1.87696457 1.84554482-3.83493805 3.78063774-5.69113922 5.62018013z"/>
    <path fill="rgb(255,163,0)" d="M37 24h8c0-5.79866028-2.35533142-11.05154419-6.16065979-14.85331917-2.01295471 2.01632786-3.91873932 3.92467213-5.6518097 5.65968418C35.54246522 17.15974236 37 20.41100121 37 24z"/>
    <path fill="rgb(220,53,69)" d="M34.67872238 31.41187096l6.57152176 4.5611515C43.61383057 32.57571411 45 28.44845963 45 24h-8c0 2.75380707-.8581047 5.30877495-2.32127762 7.41187096z"/>
    <path fill="rgb(80,89,98)" d="M28.0000147 24c0 2.2076601-1.7923399 4-4 4s-4-1.7923399-4-4 1.7923399-4 4-4C25.14789623 20 30.27025234 16.22444285 31 17c.67373755.71603105-2.9999853 5.94022145-2.9999853 7z"/>
</svg>
