<svg xmlns="http://www.w3.org/2000/svg" width="48" height="48" viewBox="0 0 48 48">
    <path fill="none" stroke="rgb(220,53,69)" stroke-width="2" d="M4 30.5l8.47565238 5.65043492c2.20459201 1.469728 4.9938615 1.75257506 7.44861794.75533026l10.6276869-4.3174978C31.5082788 32.19976173 32.53074897 32 33.56297358 32H45.5"/>
    <path fill="none" stroke="rgb(255,163,0)" stroke-width="2" d="M46 20l-10.21738064-1.82453226c-2.39099828-.42696398-4.84648796.25541729-6.67436198 1.85480705l-5.95927346 5.21436428c-1.97256272 1.72599238-4.66550205 2.3762314-7.20832186 1.74052644L4 24"/>
    <path fill="none" stroke="rgb(40,167,69)" stroke-width="2" d="M4 17l.91651167.40733852C9.82241614 19.58774051 15.55512153 18.64142628 19.5 15l1.16002103-1.07078864C23.87385976 10.96259099 28.58800861 10.2940043 32.5 12.25h0c3.63805787 1.81902893 8.06340793.45820012 10.05078863-3.09069398L46 3"/>
    <path fill="rgb(80,89,98)" d="M3 43V1h2v42h42v2H5v2H3v-2H1v-2h2z"/>
</svg>
