<svg xmlns="http://www.w3.org/2000/svg" width="48" height="48" viewBox="0 0 48 48">
    <path fill="rgb(80,89,98)" d="M23 23V1h2v22h22v2H25v22h-2V25H1v-2h22z"/>
    <path fill="none" stroke="rgb(220,53,69)" stroke-width="2" d="M20 44l10.4773195-10.4773195C33.44299251 30.55700749 38.3150058 30.77800697 41 34l5 6"/>
    <path fill="none" stroke="rgb(255,163,0)" stroke-width="2" d="M46 20h-6.6862915c-2.12173192 0-4.15656322.84285472-5.65685425 2.34314575L19.16227766 36.83772234C17.27379615 38.72620385 14.38876116 39.19438058 12 38l-4-2"/>
    <path fill="none" stroke="rgb(40,167,69)" stroke-width="2" d="M2 17l3.29179607-1.64589803C9.4030266 13.29848669 14.3228036 13.7421027 18 16.5h0c3.5236093 2.64270698 8.39577582 2.53981979 11.80467974-.24928343L46 3"/>
</svg>
