<svg xmlns="http://www.w3.org/2000/svg" width="48" height="48" viewBox="0 0 48 48">
    <path fill="rgb(255,163,0)" fill-rule="evenodd" d="M11.96124935 35c-.60756779 0-1.1821928.27618027-1.56173801.75061035l-4.79999924 6C4.55189037 43.0601349 5.4842372 45 7.16124964 45h33.67750072c1.6770134 0 2.60935974-1.93986511 1.56174088-3.24938965l-4.80000305-6C37.22094489 35.27618027 36.64631605 35 36.03874922 35H11.96124935zm15.97724009 1c-.6478157 0-1.25550652.3137703-1.63061142.84193802l-1.12142754 1.5790329C24.7161994 39.08310699 25.1896224 40 26.0017562 40h11.04073143c.8121357 0 1.2855587-.916893.81530953-1.57902908l-1.12142754-1.5790329C36.3612628 36.31377029 35.75357008 36 35.10575819 36h-7.16726875z"/>
    <path fill="rgb(220,53,69)" fill-rule="evenodd" d="M26.3078779 29.84193934C26.68298278 29.31377137 27.29067426 29 27.9384899 29h7.16726679c.64781562 0 1.2555071.31377137 1.630612.84193934l1.12142736 1.57903033C38.32804585 32.0831068 37.85462333 33 37.04249005 33H26.00175654c-.81213329 0-1.28555581-.91689319-.815306-1.57903033l1.12142735-1.57903033z"/>
    <path fill="rgb(40,167,69)" fill-rule="evenodd" d="M31.49997902 31S41 18.72222137 41 13.48648643C41 8.2507515 36.74319077 4 31.49999428 4c-5.24319649 0-9.50000572 4.2507515-9.50000572 9.48648643C21.99998856 18.72222137 31.49997902 31 31.49997902 31zm3.65385246-17.51351357c0-2.0137434-1.6372261-3.64864826-3.65383148-3.64864826s-3.65383339 1.63490486-3.65383339 3.64864826c0 2.01374436 1.63722801 3.64864922 3.65383339 3.64864922 2.01660538 0 3.65383148-1.63490486 3.65383148-3.64864922z"/>
</svg>
