<svg xmlns="http://www.w3.org/2000/svg" width="48" height="48" viewBox="0 0 48 48">
    <path fill="rgb(255,163,0)" d="M10.39951208 35.7506099C10.77905645 35.27617944 11.35368225 35 11.96124969 35h24.07750062c.60756744 0 1.18219324.27617944 1.56173761.7506099l4.8 6C43.44810928 43.0601366 42.51576272 45 40.83875031 45H7.16124969c-1.67701241 0-2.60935897-1.9398634-1.56173761-3.2493901l4.8-6z"/>
    <path fill="rgb(40,167,69)" d="M24 40s13-16.82510376 13-24c0-7.17489529-5.82509422-13-12.99997711-13-7.1748848 0-12.99997902 5.82510471-12.99997902 13C11.00004387 23.17489624 24 40 24 40zm5-24c0-2.75957489-2.24041176-5-4.99996948-5-2.75955963 0-4.9999714 2.24042511-4.9999714 5s2.24041177 5 4.9999714 5C26.75958824 21 29 18.75957489 29 16z"/>
</svg>
