<svg xmlns="http://www.w3.org/2000/svg" width="48" height="48" viewBox="0 0 48 48">
    <path fill="rgb(40,167,69)" d="M33.21286774 14.83174896C30.85798454 12.46549416 27.5987854 11 24 11c-7.17489624 0-13 5.82510376-13 13H3C3 12.40978432 12.40978432 3 24 3c5.82447433 0 11.09830475 2.3763485 14.90400696 6.21156883-1.87696457 1.84554482-3.83493805 3.78063774-5.69113922 5.62018013z"/>
    <path fill="rgb(80,89,98)" d="M45 24h-8c0-3.5889988-1.45753479-6.84025764-3.81246948-9.19363499 1.73307037-1.73501205 3.63885498-3.64335632 5.65180969-5.65968418C42.64466858 12.94845581 45 18.20133973 45 24zm-20.99998474 4c2.20766067 0 4-1.79233932 4-4 0-.4506073.66415787-1.65407944 1.37589836-2.94377518C30.33811188 19.31269455 31.38727188 17.41158295 31 17c-.41959763-.4459362-2.29144669.61278343-4.02497673 1.59326935C25.69366264 19.31800652 24.48787689 20 24.00001526 20c-2.20766068 0-4 1.79233932-4 4s1.79233932 4 4 4z"/>
    <text transform="rotate(45.000016 41.65685425 7.65685425)">
        <tspan x="37.157" y="9.157" fill="rgb(80,89,98)" font-family="inherit" font-size="6" font-weight="700" style="white-space:pre;text-transform:none">80</tspan>
    </text>
    <text>
        <tspan x="19.457" y="44" fill="rgb(80,89,98)" font-family="inherit" font-size="11" font-weight="700" style="white-space:pre;text-transform:none">%</tspan>
    </text>
</svg>
