<svg xmlns="http://www.w3.org/2000/svg" width="48" height="48" viewBox="0 0 48 48">
    <g transform="rotate(-23.000008 24.00001192 24.0000062)">
        <path fill="rgb(220,53,69)" d="M27.32033157 27.34535217l4.42708588 4.46044922c2.00829315-1.9933815 3.2525978-4.75542068 3.2525978-7.80578804h-6.28571319c0 1.30730057-.5332756 2.49103165-1.39397049 3.34533882z"/>
        <path fill="rgb(255,163,0)" d="M28.71430016 24.00000381h6.2857151c0-6.071064-4.9289341-10.99999904-11-10.99999904v6.28571415c2.60188293 0 4.7142849 2.11240005 4.7142849 4.7142849z"/>
        <path fill="rgb(40,167,69)" d="M24.00000763 35.00000763c3.0547123 0 5.8202715-1.24785233 7.81430149-3.26117897l-4.46531582-4.42218208c-.85458374.862854-2.03982353 1.39764976-3.34898567 1.39764976-2.60188484 0-4.7142849-2.11240196-4.7142849-4.7142849 0-2.60188675 2.11240006-4.7142868 4.7142849-4.7142868v-6.2857151c-6.071064 0-10.99999905 4.9289341-10.99999905 11s4.92893505 10.99999809 10.99999905 10.99999809z"/>
    </g>
    <path fill="rgb(255,163,0)" d="M27.36336899 8.39373577c.13687134.35274124.10740852.71284866-.08110047.98809719-.1884346.27524757-.51344108.43316555-.8916626.43316555H21.6093197c-.37822151 0-.70330239-.15784264-.89173699-.43316555-.18836021-.27532292-.2179737-.63535595-.08110046-.98802185l2.63071442-6.7732631c.20962905-.53982258.54906654-.62047279.7327652-.62047279.18370055 0 .52313613.08057499.7327671.62054801l2.63064003 6.77311254zm9.12218857 7.6065998c-.27389527 0-.54553223-.12086296-.76485825-.34018993l-3.38069534-3.38084412c-.26742935-.2674303-.3855877-.60904789-.32410431-.93698501.061409-.32793713.2952423-.60341072.64129257-.75591755l6.64939499-2.92911244c.16791534-.07396078.32598114-.11146736.46984482-.11146736.24059677 0 .44789886.10635615.56883621.29178381.10207367.15641499.18452454.4318881-.00233078.85603476l-2.92926407 6.6493187c-.18144226.41166972-.52832031.65737914-.92811584.65737914z"/>
    <path fill="rgb(220,53,69)" d="M46.379452 23.26719564l-6.77303796-2.630414c-.14596708-.05674827-.29283612-.08546065-.43639798-.08546065-.57071475 0-.98493957.44504176-.98493957 1.0581486l.00007517 4.78136147c0 .61310684.41422481 1.0581486.98493957 1.0581486.14371218 0 .29058122-.02871237.43639798-.08538548l6.77311311-2.6306395C46.91942497 24.52324915 47 24.1838118 47 24.00003758c0-.18362388-.08080052-.52321156-.620548-.73284194z"/>
    <path fill="rgb(40,167,69)" d="M12.27915192 15.66014719c-.21925164.21932602-.49081612.34018898-.76471138.34018898-.39986897 0-.74682236-.24570847-.92811585-.65737963L7.65713644 8.69356251c-.18678093-.42407131-.10432672-.6996193-.0023303-.85603428.12093782-.18542767.328238-.29178381.5688362-.29178381.14386178 0 .30193044.03750658.46977044.11139202l6.64946938 2.92933798c.34605217.15243149.5797348.42797947.64129257.7558422.06148338.32801247-.05667305.66955472-.32410431.93698598l-3.3809185 3.38084459zm-2.46407795 5.94924927v4.78136062c0 .61310769-.41429997 1.05814934-.98509026 1.05814934-.14371204 0-.2905054-.02878761-.4364729-.08546066l-6.7730379-2.63041496C1.08057499 24.52317476 1 24.18373728 1 24.00003862c0-.18377304.08065021-.52321052.6204729-.73284149l6.7731886-2.63056373c.14589119-.05667305.29261017-.08538628.43632221-.08538628.57086563 0 .98509026.44504166.98509026 1.05814934zm.77125072 11.04772377c.18129349-.41167069.52817154-.65737915.92796517-.65737915.2739706 0 .54561042.12093734.76493644.34026336l3.38076973 3.38069535c.26750565.26750564.3855877.60912323.32410431.93698501-.061409.32786179-.29524135.60340882-.64129352.7558403l-6.64939404 2.92926217c-.16791534.07403564-.32598305.11154174-.46984577.11154174-.24052286 0-.44789791-.10643005-.56883574-.29178238-.10207176-.15649032-.18452596-.43196487.00232983-.8561077l2.9292636-6.6493187zm25.13437462-.31711579c.21932602-.21932602.4909668-.34026336.76493454-.34026336.39979553 0 .74667358.24570846.92796707.65737915l2.92911148 6.64946747c.18678284.42399406.10432816.6994686.0022583.85603141-.12094116.18527985-.32823944.2917862-.56884002.2917862-.14385987 0-.30192948-.0375061-.46976853-.11139298l-6.64939499-2.92941093c-.34597778-.1523552-.57980728-.42790604-.64129257-.75576782-.06148338-.32786179.05667496-.66947937.32410431-.93698502l3.38092041-3.38084412zm-15.00304222 6.2782402c.1883583-.27524947.51344109-.43324279.8916626-.43324279h4.78128624c.3782215 0 .703228.15799332.89166069.4332428.18850898.27539825.2179737.63542938.08110237.98794365l-2.63064003 6.77333832c-.20963097.53982162-.54906845.62039566-.7327671.62039566-.18369866 0-.52313615-.08057404-.73276711-.62039566l-2.63063812-6.77326584c-.13687325-.35266304-.10725976-.71269417.08110046-.98801613z"/>
</svg>
