<svg xmlns="http://www.w3.org/2000/svg" width="48" height="48" viewBox="0 0 48 48">
    <path fill="rgb(40,167,69)" d="M24 11V3C12.40978432 3 3 12.40978432 3 24c0 11.59021378 9.40978432 21 21 21 5.79115868 0 11.03795242-2.34923935 14.8385582-6.14590073-1.85917664-1.86340332-3.80419922-3.81150055-5.65097428-5.66051483C30.8346882 35.54496002 27.58592415 37 24 37c-7.17489624 0-13-5.82510376-13-13s5.82510376-13 13-13z"/>
    <path fill="rgb(255,163,0)" d="M38.87622452 38.81637573C42.65988159 35.01755143 45 29.7799015 45 24c0-11.59021568-9.40978241-21-21-21v8c7.17489624 0 13 5.82510376 13 13 0 3.5815773-1.4515152 6.82681084-3.79787064 9.17902756 1.85220337 1.8435707 3.80467987 3.78420257 5.67409516 5.63734817z"/>
    <text>
        <tspan x="16.988" y="27.5" fill="rgb(80,89,98)" font-family="inherit" font-size="11" font-weight="700" style="white-space:pre;text-transform:none">45</tspan>
    </text>
</svg>
