<svg xmlns="http://www.w3.org/2000/svg" width="48" height="48" viewBox="0 0 48 48">
    <path fill="rgb(40,167,69)" fill-rule="evenodd" d="M16 3H5c-1.1038301 0-2 .8961699-2 2v23h13c6 0 11 14 20 14h9v-7h-9c-9 0-14-15-20-15 6 0 11 9 20 9h9v-9h-9c-9 0-14-9-20-9 6 0 11 3 20 3h9V6h-9c-9 0-14-3-20-3z"/>
    <path fill="rgb(255,163,0)" fill-rule="evenodd" d="M45 14h-9c-9 0-14 14-20 14H3v11h13l20 5h7c1.10456848 0 2-.89543152 2-2h-9l-20-5c6 0 11-5 20-5h9v-3h-9c-9 0-14 5-20 5 6 0 11-14 20-14h9v-6z"/>
    <path fill="rgb(220,53,69)" fill-rule="evenodd" d="M36 3h7.5c.82842636 0 1.5.67157292 1.5 1.5V6h-9c-9 0-14 36-20 36 6 0 11-10 20-10h9v3h-9c-9 0-14 10-20 10H5c-1.10456944 0-2-.89543152-2-2v-4h13c6 0 11-36 20-36z"/>
</svg>
